<?xml version="1.0" standalone="yes"?>
<svg xmlns="http://www.w3.org/2000/svg" width="300" height="168">
<path style="fill:#ffffff; stroke:none;" d="M0 0L0 168L300 168L300 0L0 0z"/>
<path style="fill:#afd3ea; stroke:none;" d="M230.667 5.33333C230.222 5.77779 231.278 5.72221 231.333 5.66667C231.778 5.22221 230.722 5.27776 230.667 5.33333z"/>
<path style="fill:#7fb9dd; stroke:none;" d="M232 5C237.217 7.18892 244.381 6 250 6L286 6C280.784 3.81108 273.619 5 268 5L232 5z"/>
<path style="fill:#bfdcee; stroke:none;" d="M227 6L228 7L227 6z"/>
<path style="fill:#60a8d5; stroke:none;" d="M228 6L229 7L228 6z"/>
<path style="fill:#0073bb; stroke:none;" d="M292 47L272 47L272 60L255 60C252.585 59.995 249.44 60.3885 247.318 58.9722C243.882 56.6794 245 50.5202 245 47L245 13L272 13L272 25L292 25C292 20.5391 293.594 12.2431 290.972 8.43364C288.745 5.19835 283.374 6.0013 280 6L251 6C242.81 6 225.528 2.31084 225.019 14.0008C224.485 26.284 225 38.7042 225 51C225 54.8077 223.768 61.4035 226.603 64.436C229.861 67.9196 236.727 66.9997 241 67L276 67C280.244 67 286.944 68.0195 290.397 64.9105C293.924 61.7341 292 51.3821 292 47z"/>
<path style="fill:#70b0d9; stroke:none;" d="M289 6L290 7L289 6z"/>
<path style="fill:#60a8d5; stroke:none;" d="M226 7L227 8L226 7z"/>
<path style="fill:#9fcae5; stroke:none;" d="M291 7L292 8L291 7z"/>
<path style="fill:#7fb9dd; stroke:none;" d="M225 8L226 9L225 8z"/>
<path style="fill:#bfdcee; stroke:none;" d="M292 8L293 9L292 8z"/>
<path style="fill:#4096cc; stroke:none;" d="M292 9L292 25L272 25C277.959 27.5005 286.564 26 293 26C293 20.638 294.087 13.9741 292 9M245 13L245 59C246.661 55.0413 246 50.2604 246 46L246 25C246 21.0172 246.552 16.6987 245 13z"/>
<path style="fill:#7fb9dd; stroke:none;" d="M246 13C253.169 16.0081 264.239 14 272 14C264.831 10.9919 253.761 13 246 13z"/>
<path style="fill:#bfdcee; stroke:none;" d="M79 15L79 90C81.1889 84.7835 80 77.6191 80 72L80 35C80 28.846 81.3949 20.7073 79 15z"/>
<path style="fill:#0073bb; stroke:none;" d="M80 15L80 89L99 89C99 74.6558 101.328 57.9782 98 44C105.601 53.8886 112.357 64.6542 119.33 75C122.046 79.0296 124.838 85.4991 129.184 87.9722C133.517 90.4377 141.15 89 146 89L146 15L128 15L128 59C119.836 49.4215 113.438 38.2471 106.141 28C103.484 24.2684 100.906 18.3551 96.8156 16.0278C92.4826 13.5623 84.8498 15 80 15z"/>
<path style="fill:#7fb9dd; stroke:none;" d="M97 15L98 16L97 15z"/>
<path style="fill:#4096cc; stroke:none;" d="M127 15L127 57C130.407 48.8817 128 35.7968 128 27C128 23.0172 128.552 18.6987 127 15z"/>
<path style="fill:#7fb9dd; stroke:none;" d="M146 15L146 90C148.189 84.7835 147 77.6191 147 72L147 35C147 28.846 148.395 20.7073 146 15z"/>
<path style="fill:#70b0d9; stroke:none;" d="M99 18L100 19L99 18z"/>
<path style="fill:#bfdcee; stroke:none;" d="M100 19L101 20L100 19z"/>
<path style="fill:#60a8d5; stroke:none;" d="M101 21L102 22L101 21z"/>
<path style="fill:#afd3ea; stroke:none;" d="M102 22L103 23L102 22z"/>
<path style="fill:#509fd0; stroke:none;" d="M103 24L104 25L103 24z"/>
<path style="fill:#9fcae5; stroke:none;" d="M104 25L105 26L104 25z"/>
<path style="fill:#bfdcee; stroke:none;" d="M33 110C36.0042 102.841 34 91.7437 34 84L34 27L62 27C56.0768 24.5145 47.3935 25.9567 41 26.0008C38.7909 26.016 35.5833 25.6394 34.0278 27.6034C32.6987 29.2815 33.0145 32.008 33.0008 34L33 50L33 110z"/>
<path style="fill:#0073bb; stroke:none;" d="M34 27L34 109L61 109L61 27L34 27z"/>
<path style="fill:#4096cc; stroke:none;" d="M61 27L61 109L34 109C41.6488 112.21 53.7122 110 62 110L62 53C62 45.2563 64.0042 34.1593 61 27M105 27L106 28L105 27z"/>
<path style="fill:#8fc2e1; stroke:none;" d="M106 28L107 29L106 28z"/>
<path style="fill:#7fb9dd; stroke:none;" d="M151 28L151 76C151 80.5131 149.105 90.7062 152.028 94.3966C154.833 97.9388 165.913 96 170 96L221 96C214.806 93.4009 205.686 95 199 95L152 95L152 49C152 42.5798 153.497 33.951 151 28z"/>
<path style="fill:#0073bb; stroke:none;" d="M152 28L152 95L221 95L221 87L177 87L177 65L214 65L214 57L177 57L177 37L220 37L220 28L152 28z"/>
<path style="fill:#7fb9dd; stroke:none;" d="M220 28L220 37C221.256 34.0059 221.256 30.9941 220 28M108 31L109 32L108 31z"/>
<path style="fill:#70b0d9; stroke:none;" d="M110 34L111 35L110 34z"/>
<path style="fill:#bfdcee; stroke:none;" d="M111 35L112 36L111 35z"/>
<path style="fill:#60a8d5; stroke:none;" d="M112 37L113 38L112 37z"/>
<path style="fill:#bfdcee; stroke:none;" d="M177 37C181.469 38.8752 187.191 38 192 38L221 38C216.531 36.1248 210.809 37 206 37L177 37z"/>
<path style="fill:#afd3ea; stroke:none;" d="M113 38L114 39L113 38z"/>
<path style="fill:#509fd0; stroke:none;" d="M114 40L115 41L114 40z"/>
<path style="fill:#9fcae5; stroke:none;" d="M115 41L116 42L115 41z"/>
<path style="fill:#4096cc; stroke:none;" d="M116 43L117 44L116 43M98 44L98 46L100 46C99.4549 44.3649 99.6352 44.5451 98 44z"/>
<path style="fill:#8fc2e1; stroke:none;" d="M117 44L118 45L117 44z"/>
<path style="fill:#7fb9dd; stroke:none;" d="M272 46C277.959 48.5005 286.564 47 293 47C287.041 44.4995 278.436 46 272 46z"/>
<path style="fill:#bfdcee; stroke:none;" d="M100 47L101 48L100 47z"/>
<path style="fill:#7fb9dd; stroke:none;" d="M119 47L120 48L119 47z"/>
<path style="fill:#4096cc; stroke:none;" d="M292 47L292 64C293.883 59.5135 293.883 51.4865 292 47z"/>
<path style="fill:#70b0d9; stroke:none;" d="M101 48L102 49L101 48z"/>
<path style="fill:#bfdcee; stroke:none;" d="M102 50L103 51L102 50z"/>
<path style="fill:#70b0d9; stroke:none;" d="M121 50L122 51L121 50M103 51L104 52L103 51z"/>
<path style="fill:#bfdcee; stroke:none;" d="M122 51L123 52L122 51M104 53L105 54L104 53z"/>
<path style="fill:#60a8d5; stroke:none;" d="M123 53L124 54L123 53z"/>
<path style="fill:#70b0d9; stroke:none;" d="M105 54L106 55L105 54z"/>
<path style="fill:#afd3ea; stroke:none;" d="M124 54L125 55L124 54z"/>
<path style="fill:#bfdcee; stroke:none;" d="M106 56L107 57L106 56z"/>
<path style="fill:#509fd0; stroke:none;" d="M125 56L126 57L125 56z"/>
<path style="fill:#7fb9dd; stroke:none;" d="M177 56C180.959 57.6611 185.74 57 190 57L214 57L214 65C215.072 62.4393 215.819 58.1468 212.682 56.6034C209.782 55.1767 205.142 56 202 56L177 56z"/>
<path style="fill:#bfdcee; stroke:none;" d="M214 56L215 57L214 56z"/>
<path style="fill:#7fb9dd; stroke:none;" d="M107 57L108 58L107 57z"/>
<path style="fill:#9fcae5; stroke:none;" d="M126 57L127 58L126 57z"/>
<path style="fill:#70b0d9; stroke:none;" d="M127.333 57.6667C127.278 57.7222 127.222 58.7778 127.667 58.3333C127.722 58.2778 127.778 57.2222 127.333 57.6667z"/>
<path style="fill:#4096cc; stroke:none;" d="M246 59C253.169 62.0081 264.239 60 272 60C264.831 56.9919 253.761 59 246 59z"/>
<path style="fill:#7fb9dd; stroke:none;" d="M109 60L110 61L109 60M111 63L112 64L111 63z"/>
<path style="fill:#afd3ea; stroke:none;" d="M225 64L226 65L225 64z"/>
<path style="fill:#bfdcee; stroke:none;" d="M177 65C180.959 66.6611 185.74 66 190 66L215 66C211.041 64.3389 206.26 65 202 65L177 65z"/>
<path style="fill:#afd3ea; stroke:none;" d="M226 65L227 66L226 65z"/>
<path style="fill:#4096cc; stroke:none;" d="M290 65L291 66L290 65z"/>
<path style="fill:#7fb9dd; stroke:none;" d="M113 66L114 67L113 66z"/>
<path style="fill:#afd3ea; stroke:none;" d="M228 66L229 67L228 66z"/>
<path style="fill:#308dc8; stroke:none;" d="M229.667 66.3333C229.222 66.7777 230.278 66.7223 230.333 66.6667C230.778 66.2222 229.722 66.2778 229.667 66.3333z"/>
<path style="fill:#70b0d9; stroke:none;" d="M287.667 66.3333C287.222 66.7779 288.278 66.7222 288.333 66.6667C288.778 66.2223 287.722 66.2777 287.667 66.3333z"/>
<path style="fill:#bfdcee; stroke:none;" d="M289 66L290 67L289 66M232 67C236.969 69.0851 243.65 68 249 68L285 68C280.031 65.9149 273.35 67 268 67L232 67z"/>
<path style="fill:#8fc2e1; stroke:none;" d="M115 69L116 70L115 69z"/>
<path style="fill:#4096cc; stroke:none;" d="M116 70L117 71L116 70z"/>
<path style="fill:#8fc2e1; stroke:none;" d="M117 72L118 73L117 72z"/>
<path style="fill:#4096cc; stroke:none;" d="M118 73L119 74L118 73z"/>
<path style="fill:#8fc2e1; stroke:none;" d="M119 75L120 76L119 75z"/>
<path style="fill:#4096cc; stroke:none;" d="M120 76L121 77L120 76z"/>
<path style="fill:#8fc2e1; stroke:none;" d="M121 78L122 79L121 78z"/>
<path style="fill:#4096cc; stroke:none;" d="M122 79L123 80L122 79z"/>
<path style="fill:#9fcae5; stroke:none;" d="M123 81L124 82L123 81z"/>
<path style="fill:#fefaf5; stroke:none;" d="M248 81C247.375 84.3632 247.028 87.5782 247 91L224 91C230.445 93.7044 240.032 92 247 92L247 109C249.087 104.026 248 97.362 248 92L271 92L271 109C273.087 104.026 272 97.362 272 92L295 92C288.555 89.2956 278.968 91 272 91C271.972 87.5782 271.625 84.3632 271 81L248 81z"/>
<path style="fill:#509fd0; stroke:none;" d="M124 82L125 83L124 82z"/>
<path style="fill:#afd3ea; stroke:none;" d="M125 84L126 85L125 84z"/>
<path style="fill:#fbf2e5; stroke:none;" d="M224 91L247 91L247 84C239.045 84 224.589 80.3595 224 91M248 91L271 91C270.888 88.9861 271.024 86.4377 269.258 85.0262C267.201 83.3824 263.44 84.0011 261 84C254.238 83.997 248.456 82.7686 248 91M272 84L272 91L295 91C294.41 80.3594 279.955 84 272 84z"/>
<path style="fill:#509fd0; stroke:none;" d="M126 85L127 86L126 85z"/>
<path style="fill:#4096cc; stroke:none;" d="M177 86C181.469 87.8752 187.191 87 192 87L221 87C216.531 85.1248 210.809 86 206 86L177 86z"/>
<path style="fill:#bfdcee; stroke:none;" d="M221 86L221 96C222.346 92.793 222.346 89.207 221 86z"/>
<path style="fill:#afd3ea; stroke:none;" d="M127 87L128 88L127 87z"/>
<path style="fill:#509fd0; stroke:none;" d="M128 88L129 89L128 88z"/>
<path style="fill:#4096cc; stroke:none;" d="M80 89C85.4692 91.295 93.0987 90 99 90C93.5308 87.705 85.9013 89 80 89M129 89C133.974 91.0872 140.638 90 146 90C141.026 87.9128 134.362 89 129 89z"/>
<path style="fill:#f8e4ca; stroke:none;" d="M224 92L224 98C230.523 94.3726 239.727 96 247 96L247 92L224 92z"/>
<path style="fill:#f7e2c6; stroke:none;" d="M248 92L248 109C249.098 106.387 248.993 103.835 249 101L270 101L270 109C272.087 104.026 271 97.362 271 92L248 92z"/>
<path style="fill:#f8e4ca; stroke:none;" d="M272 92L272 96C278.443 96 288.719 93.9988 294 98C294.874 95.9479 294.953 94.2528 295 92L272 92z"/>
<path style="fill:#bfdcee; stroke:none;" d="M151 95L152 96L151 95z"/>
<path style="fill:#f5dbb8; stroke:none;" d="M224 109C224.683 107.494 224.826 106.685 225 105L247 105L247 96C241.671 96 236.332 95.9032 231.004 96.0046C229.034 96.0421 226.543 95.8806 225.179 97.6034C223.03 100.316 224 105.758 224 109M272 96L272 105L294 105L294 109C294.601 107.567 294.889 106.536 294.965 104.941C295.081 102.531 295.366 98.7332 293.258 97.0278C291.619 95.7017 288.957 96.0143 286.999 96.0008L272 96z"/>
<path style="fill:#f3d2a5; stroke:none;" d="M249 101L249 109L270 109L270 101L249 101z"/>
<path style="fill:#fbf4e9; stroke:none;" d="M78 102L78 109C84.5226 105.373 93.7265 107 101 107L101 102L78 102M102 102L102 109C107.361 106.018 118.996 105.209 124 109C124.985 106.668 124.981 104.543 125 102L102 102M126 102L126 107C132.443 107 142.719 104.999 148 109C148.985 106.668 148.981 104.543 149 102L126 102z"/>
<path style="fill:#f2d0a2; stroke:none;" d="M225 105L225 109L247 109L247 105L225 105M272 105L272 109L294 109L294 105L272 105z"/>
<path style="fill:#f9ecd9; stroke:none;" d="M79 107L79 109L101 109L101 107L79 107M103 107L103 109L124 109L124 107L103 107M126 107L126 109L148 109L148 107L126 107z"/>
<path style="fill:#faeddb; stroke:none;" d="M78 112C85.4234 110.233 93.4068 111 101 111C96.3195 109.036 81.469 108.03 78 112M102 112C109.189 110.288 117.811 110.288 125 112C121.817 108.357 105.183 108.357 102 112M126 110C132.869 112.882 141.645 110.249 149 112C145.102 107.54 131.715 110 126 110z"/>
<path style="fill:#faf0e2; stroke:none;" d="M151 110L151 113L174 113L174 110L151 110M175 110L175 113L198 113L198 110L175 110M199 110L199 113L222 113L222 110L199 110z"/>
<path style="fill:#efc68c; stroke:none;" d="M224 110L224 127C225.661 123.041 225 118.263 225 114L247 114L247 110L224 110z"/>
<path style="fill:#f9ead5; stroke:none;" d="M247 110L247 127L224 127C230.445 129.704 240.032 128 247 128L247 147C249.295 141.531 248 133.901 248 128L271 128L271 147C273.295 141.531 272 133.901 272 128L295 128C288.555 125.296 278.968 127 272 127L272 110C269.913 114.974 271 121.638 271 127L248 127C248 121.638 249.087 114.974 247 110z"/>
<path style="fill:#efc68c; stroke:none;" d="M248 110L248 127C249.661 123.041 249 118.263 249 114L270 114L270 127C272.087 122.026 271 115.362 271 110L248 110M272 110L272 114L294 114L294 127C296.087 122.026 295 115.362 295 110L272 110z"/>
<path style="fill:#f6ddbb; stroke:none;" d="M78 118C84.5226 114.373 93.7265 116 101 116L101 111C93.0922 111 78.3501 107.34 78 118M102 118C107.361 115.018 118.996 114.209 124 118C124.787 116.055 125.399 113.603 123.396 112.027C121.301 110.379 117.476 111.001 115 111C108.239 110.997 102.272 109.705 102 118M126 111L126 116C132.443 116 142.719 113.999 148 118C152.172 107.695 131.729 111 126 111z"/>
<path style="fill:#f9e8d1; stroke:none;" d="M151 113L151 119C151.685 117.752 151.749 117.452 152 116L174 116L174 113L151 113z"/>
<path style="fill:#f9ead7; stroke:none;" d="M175 113C173.574 124.281 174 135.633 174 147C176.398 141.286 174.99 133.16 175 127C175.005 124.266 174.577 120.719 176.179 118.318C178.783 114.416 194.217 114.416 196.821 118.318C198.423 120.719 197.995 124.266 198 127L198 147C199.552 143.301 199 138.983 199 135C199 127.565 198.932 120.375 198 113L175 113z"/>
<path style="fill:#f9e8d1; stroke:none;" d="M199 113L199 116C204.958 116 217.449 113.523 221 119C221.874 116.948 221.953 115.253 222 113L199 113z"/>
<path style="fill:#edbd7b; stroke:none;" d="M225 114L225 118L247 118L247 114L225 114M249 114L249 118L270 118L270 114L249 114M272 114L272 118L294 118L294 114L272 114z"/>
<path style="fill:#f2cfa1; stroke:none;" d="M78 127C78.8742 124.948 78.9528 123.253 79 121L101 121L101 116C95.6709 116 90.3319 115.903 85.0039 116.005C83.034 116.042 80.5437 115.881 79.179 117.603C77.3259 119.943 78.0018 124.217 78 127z"/>
<path style="fill:#f3d2a6; stroke:none;" d="M102 127C102.874 124.948 102.953 123.253 103 121L124 121L124 127C128.094 117.239 120.717 116 113 116C110.349 116 105.967 115.228 103.742 117.028C101.188 119.094 102.002 124.113 102 127z"/>
<path style="fill:#f4d5ab; stroke:none;" d="M126 116L126 119L148 119L148 127C154.067 112.535 134.409 116 126 116z"/>
<path style="fill:#f7dfc0; stroke:none;" d="M152 116L152 119L174 119L174 116L152 116z"/>
<path style="fill:#f6dcba; stroke:none;" d="M175 129L198 129C198 125.758 198.97 120.316 196.821 117.603C194.273 114.387 184.695 115.855 181.015 116.019C179.296 116.096 177.348 116.127 176.179 117.603C174.03 120.316 175 125.758 175 129z"/>
<path style="fill:#f7dfc0; stroke:none;" d="M199 116L199 119L221 119L221 116L199 116z"/>
<path style="fill:#ebb66c; stroke:none;" d="M225 118L225 122L247 122L247 118L225 118M249 118L249 122L270 122L270 118L249 118M272 118L272 122L294 122L294 118L272 118z"/>
<path style="fill:#f9ebd6; stroke:none;" d="M101 119L101 147C103.604 140.793 103.604 125.207 101 119M125 119L125 147C127.604 140.793 127.604 125.207 125 119z"/>
<path style="fill:#f0c891; stroke:none;" d="M126 119L126 124L148 124L148 119L126 119z"/>
<path style="fill:#f4d6ae; stroke:none;" d="M151 119L151 127C151.779 125.231 151.912 123.964 152 122L174 122L174 119L151 119M199 119L199 122L221 122L221 127C222.098 124.387 221.993 121.835 222 119L199 119z"/>
<path style="fill:#f4d4a8; stroke:none;" d="M176 120L176 122L197 122L197 120L176 120z"/>
<path style="fill:#fbf0e1; stroke:none;" d="M53 121L53 125L75 125L75 127L53 127L53 129L76 129L76 121L53 121z"/>
<path style="fill:#f0c891; stroke:none;" d="M79 121L79 124L101 124L101 121L79 121M103 121L103 124L124 124L124 121L103 121z"/>
<path style="fill:#faf1e2; stroke:none;" d="M5 129L28 129L28 127L6 127L6 125L28 125L28 122C20.0922 122 5.35006 118.34 5 129z"/>
<path style="fill:#fbf0e1; stroke:none;" d="M29 122L29 129L52 129L52 127L30 127L30 125L52 125C48.3787 119.414 35.0961 122 29 122z"/>
<path style="fill:#f1cd9c; stroke:none;" d="M152 122L152 125L174 125L174 122L152 122M176 122L176 125L197 125L197 122L176 122M199 122L199 125L221 125L221 122L199 122z"/>
<path style="fill:#e8ae5c; stroke:none;" d="M225 122L225 127L247 127L247 122L225 122M249 122L249 127L270 127L270 122L249 122M272 122L272 127L294 127L294 122L272 122z"/>
<path style="fill:#eec081; stroke:none;" d="M79 124L79 127L101 127L101 124L79 124M103 124L103 127L124 127L124 124L103 124M126 124L126 127L148 127L148 124L126 124z"/>
<path style="fill:#f8e3c9; stroke:none;" d="M6 125L6 127L28 127L28 125L6 125M30 125L30 127L52 127L52 125L30 125M53 125L53 127L75 127L75 125L53 125z"/>
<path style="fill:#efc48a; stroke:none;" d="M152 125L152 127L174 127L174 125L152 125M176 125L176 127L197 127L197 125L176 125M199 125L199 127L221 127L221 125L199 125z"/>
<path style="fill:#f5dcb7; stroke:none;" d="M78 127L78 129L101 129L101 127L78 127M102 127L102 129L125 129L125 127L102 127M126 127L126 129L149 129L149 127L126 127z"/>
<path style="fill:#f6dfbe; stroke:none;" d="M151 127L151 129L174 129L174 127L151 127M199 127L199 129L222 129L222 127L199 127z"/>
<path style="fill:#ecbe7c; stroke:none;" d="M224 128L224 137C225.098 134.387 224.993 131.835 225 129L247 129C240.555 126.296 230.968 128 224 128M248 128L248 137C249.098 134.387 248.993 131.835 249 129L270 129L270 137C271.213 134.11 270.998 131.126 271 128L248 128M272 128C278.202 130.603 287.298 129 294 129L294 137C295.213 134.11 294.998 131.126 295 128L272 128z"/>
<path style="fill:#f3d2a5; stroke:none;" d="M5 129L5 135C5.68304 133.494 5.82589 132.685 6 131L28 131L28 129L5 129z"/>
<path style="fill:#fbf1e4; stroke:none;" d="M28 129L28 137C29.1614 134.23 29.1614 131.77 28 129z"/>
<path style="fill:#f4d6ae; stroke:none;" d="M29 129L29 135C29.683 133.494 29.8259 132.685 30 131L51 131L51 135C51.8742 132.948 51.9528 131.253 52 129L29 129z"/>
<path style="fill:#fbf1e4; stroke:none;" d="M52 129L52 137C53.1614 134.23 53.1614 131.77 52 129z"/>
<path style="fill:#f3d2a5; stroke:none;" d="M53 129L53 131L75 131L75 135C75.8742 132.948 75.9528 131.253 76 129L53 129z"/>
<path style="fill:#e8b060; stroke:none;" d="M78 129L78 147C79.7693 142.783 79 137.541 79 133L101 133L101 129L78 129M102 129L102 147C103.769 142.783 103 137.541 103 133L124 133L124 147C126.191 141.778 125 134.632 125 129L102 129M126 129L126 133L148 133L148 147C150.191 141.778 149 134.632 149 129L126 129z"/>
<path style="fill:#ecbc78; stroke:none;" d="M151 129L151 142C152.44 138.568 152 134.7 152 131L174 131L174 129L151 129M175 129L175 140C176.213 137.11 175.998 134.126 176 131L197 131L197 140C198.44 136.568 198 132.7 198 129L175 129M199 129L199 131L221 131L221 142C222.661 138.041 222 133.263 222 129L199 129z"/>
<path style="fill:#e5a54a; stroke:none;" d="M225 129L225 132L247 132L247 129L225 129z"/>
<path style="fill:#e3a13e; stroke:none;" d="M249 129L249 137L270 137L270 129L249 129z"/>
<path style="fill:#e5a54a; stroke:none;" d="M272 129L272 132L294 132L294 129L272 129z"/>
<path style="fill:#f0c993; stroke:none;" d="M6 131L6 133L28 133L28 131L6 131M30 131L30 133L51 133L51 131L30 131M53 131L53 133L75 133L75 131L53 131z"/>
<path style="fill:#e8ad5a; stroke:none;" d="M152 131L152 135L174 135L174 131L152 131M176 131L176 135L197 135L197 131L176 131M199 131L199 135L221 135L221 131L199 131z"/>
<path style="fill:#e19c36; stroke:none;" d="M225 132L225 137L247 137L247 132L225 132M272 132L272 137L294 137L294 132L272 132z"/>
<path style="fill:#eec081; stroke:none;" d="M5 141C5.77893 139.231 5.91241 137.964 6 136L28 136L28 133L13.0008 133.001C11.0393 133.014 8.38679 132.704 6.74228 134.028C4.76717 135.618 5.05449 138.754 5 141z"/>
<path style="fill:#ecbc78; stroke:none;" d="M29 141C29.7789 139.231 29.9124 137.964 30 136L51 136L51 141C54.5946 132.173 44.8159 132.997 39 133C36.5655 133.001 32.7907 132.379 30.7423 134.028C28.7672 135.618 29.0545 138.754 29 141z"/>
<path style="fill:#eec081; stroke:none;" d="M53 133L53 136L75 136L75 141C79.6668 129.54 59.3126 133 53 133z"/>
<path style="fill:#e6a950; stroke:none;" d="M79 133L79 136L101 136L101 133L79 133M103 133L103 136L124 136L124 133L103 133M126 133L126 136L148 136L148 133L126 133z"/>
<path style="fill:#e5a74d; stroke:none;" d="M152 135L152 137L174 137L174 135L152 135M176 135L176 137L197 137L197 135L176 135M199 135L199 137L221 137L221 135L199 135z"/>
<path style="fill:#e9b365; stroke:none;" d="M6 136L6 139L28 139L28 136L6 136M30 136L30 139L51 139L51 136L30 136M53 136L53 139L75 139L75 136L53 136z"/>
<path style="fill:#e3a13f; stroke:none;" d="M79 136L79 139L101 139L101 136L79 136M103 136L103 139L124 139L124 136L103 136M126 136L126 139L148 139L148 136L126 136z"/>
<path style="fill:#f7e4c7; stroke:none;" d="M28 137L28 147C29.3457 143.793 29.3457 140.207 28 137M52 137L52 147C53.3457 143.793 53.3457 140.207 52 137z"/>
<path style="fill:#e4a240; stroke:none;" d="M152 137L152 140L174 140L174 137L152 137M176 137L176 140L197 140L197 137L176 137M199 137L199 140L221 140L221 137L199 137z"/>
<path style="fill:#e7af58; stroke:none;" d="M224 137L224 147C225.346 143.793 225.346 140.207 224 137z"/>
<path style="fill:#df9420; stroke:none;" d="M225 137L225 147L247 147L247 137L225 137z"/>
<path style="fill:#e7af58; stroke:none;" d="M248 137L248 147C249.346 143.793 249.346 140.207 248 137z"/>
<path style="fill:#df9420; stroke:none;" d="M249 137L249 147L270 147L270 137L249 137z"/>
<path style="fill:#e7af58; stroke:none;" d="M270 137L270 147C271.346 143.793 271.346 140.207 270 137z"/>
<path style="fill:#df9420; stroke:none;" d="M272 137L272 147L294 147L294 137L272 137z"/>
<path style="fill:#e7af58; stroke:none;" d="M294 137L294 147C295.346 143.793 295.346 140.207 294 137z"/>
<path style="fill:#e5a549; stroke:none;" d="M6 139L6 142L28 142L28 139L6 139M30 139L30 142L51 142L51 139L30 139M53 139L53 142L75 142L75 139L53 139z"/>
<path style="fill:#e0992e; stroke:none;" d="M79 139L79 141L101 141L101 139L79 139M103 139L103 141L124 141L124 139L103 139M126 139L126 141L148 141L148 139L126 139z"/>
<path style="fill:#df9420; stroke:none;" d="M152 140L152 147L174 147L174 140L152 140z"/>
<path style="fill:#e7af58; stroke:none;" d="M175 140L175 147C176.059 144.466 176.059 142.534 175 140z"/>
<path style="fill:#df9420; stroke:none;" d="M176 140L176 147L197 147L197 140L176 140z"/>
<path style="fill:#e7af58; stroke:none;" d="M197 140L197 147C198.059 144.466 198.059 142.534 197 140z"/>
<path style="fill:#df9420; stroke:none;" d="M199 140L199 147L221 147L221 140L199 140z"/>
<path style="fill:#e7af58; stroke:none;" d="M5 141L5 147C5.95111 144.715 5.95111 143.285 5 141M29 141L29 147C29.9511 144.715 29.9511 143.285 29 141M51 141L51 147C51.9511 144.715 51.9511 143.285 51 141M75 141L75 147C75.9511 144.715 75.9511 143.285 75 141z"/>
<path style="fill:#df9420; stroke:none;" d="M79 141L79 147L101 147L101 141L79 141M103 141L103 147L124 147L124 141L103 141M126 141L126 147L148 147L148 141L126 141M6 142L6 147L28 147L28 142L6 142M30 142L30 147L51 147L51 142L30 142M53 142L53 147L75 147L75 142L53 142z"/>
<path style="fill:#e7af58; stroke:none;" d="M151 142L151 147C151.83 144.97 151.83 144.03 151 142M221 142L221 147C221.83 144.97 221.83 144.03 221 142z"/>
<path style="fill:#bfdcee; stroke:none;" d="M283 151C285.693 152.201 288.078 152.315 291 152C288.387 150.902 285.836 151.007 283 151z"/>
<path style="fill:#7fb9dd; stroke:none;" d="M281 152L282 153L281 152z"/>
<path style="fill:#0073bb; stroke:none;" d="M274 164C277.304 163.79 280.644 162.208 283.91 162.388C286.998 162.558 289.812 163.906 293 164C290.739 159.939 288.586 155.51 284 154C285.479 153.014 285.203 153 287 153C280.309 150.411 276.028 158.726 274 164z"/>
<path style="fill:#4096cc; stroke:none;" d="M287 152L288 153L287 152z"/>
<path style="fill:#7fb9dd; stroke:none;" d="M288 152L289 153L288 152z"/>
<path style="fill:#bfdcee; stroke:none;" d="M7 165C8.44031 161.568 8 157.7 8 154L24 154C20.67 152.603 10.6105 151.342 8.02778 154.603C6.08928 157.051 7 162.073 7 165M65 153C67.3316 153.985 69.4567 153.981 72 154C69.6684 153.015 67.5434 153.019 65 153M111 165C112.44 161.568 112 157.7 112 154L117 154C109.891 151.299 111 160.488 111 165M125 153C127.052 153.874 128.747 153.953 131 154C128.948 153.126 127.253 153.047 125 153M171 153C173.052 153.874 174.747 153.953 177 154C174.948 153.126 173.253 153.047 171 153M217 153C219.052 153.874 220.747 153.953 223 154C220.948 153.126 219.253 153.047 217 153M234 153C236.052 153.874 237.747 153.953 240 154C237.948 153.126 236.253 153.047 234 153z"/>
<path style="fill:#afd3ea; stroke:none;" d="M279.333 153.667C279.278 153.722 279.222 154.778 279.667 154.333C279.722 154.278 279.778 153.222 279.333 153.667z"/>
<path style="fill:#4096cc; stroke:none;" d="M284 153L285 154L284 153z"/>
<path style="fill:#7fb9dd; stroke:none;" d="M285 153L286 154L285 153z"/>
<path style="fill:#0073bb; stroke:none;" d="M8 154L8 164L13 164L13 160L25 160L25 154L8 154z"/>
<path style="fill:#4096cc; stroke:none;" d="M25 154L25 160L13 160C18.0748 162.129 28.1576 161.799 25 154z"/>
<path style="fill:#0073bb; stroke:none;" d="M59 164C62.3427 163.787 65.6893 162.218 69 162.388C72.034 162.544 74.9197 163.804 78 164C77.0166 161.922 76.0167 159.914 74.6373 158.054C68.3861 149.623 62.2243 157.519 59 164M112 154L112 164L117 164L117 159C121.491 161.221 124.855 163.719 130 164L130 154L126 154L126 160C121.297 157.101 117.674 154.307 112 154z"/>
<path style="fill:#4096cc; stroke:none;" d="M117 154L118 155L117 154M125 154L124 160C126.093 158.176 126.039 156.529 125 154M130 154L130 164C131.346 160.793 131.346 157.207 130 154z"/>
<path style="fill:#8fc2e1; stroke:none;" d="M170 154L171 155L170 154z"/>
<path style="fill:#0073bb; stroke:none;" d="M165 164C168.071 163.796 170.975 162.258 174 162.258C177.355 162.258 180.548 163.898 184 164C180.081 157.123 173.615 149.711 167.404 158.995C166.326 160.606 165.68 162.207 165 164z"/>
<path style="fill:#509fd0; stroke:none;" d="M177 154L178 155L177 154z"/>
<path style="fill:#4096cc; stroke:none;" d="M217 154L217 164C218.346 160.793 218.346 157.207 217 154z"/>
<path style="fill:#0073bb; stroke:none;" d="M218 154L218 164L222 164L222 159C227.368 162.373 229.896 163.299 235 159L235 164L240 164L240 154C234.822 154.168 232.048 155.813 229 160C225.528 156.641 222.915 154.371 218 154z"/>
<path style="fill:#9fcae5; stroke:none;" d="M223 154L224 155L223 154z"/>
<path style="fill:#7fb9dd; stroke:none;" d="M13 155L13 159C13.7102 157.241 13.7102 156.759 13 155z"/>
<path style="fill:#bfdcee; stroke:none;" d="M14 155C16.0521 155.874 17.7472 155.953 20 156C17.9479 155.126 16.2528 155.047 14 155z"/>
<path style="fill:#509fd0; stroke:none;" d="M64 155L65 156L64 155z"/>
<path style="fill:#afd3ea; stroke:none;" d="M119 155L120 156L119 155M178 155L179 156L178 155z"/>
<path style="fill:#70b0d9; stroke:none;" d="M224 155L225 156L224 155z"/>
<path style="fill:#7fb9dd; stroke:none;" d="M287 155L288 156L287 155z"/>
<path style="fill:#ffffff; stroke:none;" d="M14 156L14 159L20 159L20 156L14 156z"/>
<path style="fill:#afd3ea; stroke:none;" d="M63 156L64 157L63 156z"/>
<path style="fill:#70b0d9; stroke:none;" d="M73 156L74 157L73 156M120 156L121 157L120 156z"/>
<path style="fill:#60a8d5; stroke:none;" d="M225 156L226 157L225 156z"/>
<path style="fill:#9fcae5; stroke:none;" d="M231 156L232 157L231 156z"/>
<path style="fill:#4096cc; stroke:none;" d="M278 156L279 157L278 156z"/>
<path style="fill:#ffffff; stroke:none;" d="M68 157L67 161L70 161C69.4361 159.248 69.0811 158.458 68 157z"/>
<path style="fill:#bfdcee; stroke:none;" d="M74 157L75 158L74 157z"/>
<path style="fill:#70b0d9; stroke:none;" d="M168 157L169 158L168 157z"/>
<path style="fill:#8fc2e1; stroke:none;" d="M173.667 157.333C173.222 157.778 174.278 157.722 174.333 157.667C174.778 157.222 173.722 157.278 173.667 157.333z"/>
<path style="fill:#4096cc; stroke:none;" d="M179 157L180 158L179 157z"/>
<path style="fill:#60a8d5; stroke:none;" d="M226 157L227 158L226 157z"/>
<path style="fill:#9fcae5; stroke:none;" d="M230 157L231 158L230 157z"/>
<path style="fill:#8fc2e1; stroke:none;" d="M277 157L278 158L277 157z"/>
<path style="fill:#4096cc; stroke:none;" d="M282 157L283 158L282 157z"/>
<path style="fill:#afd3ea; stroke:none;" d="M283 157L284 158L283 157z"/>
<path style="fill:#4096cc; stroke:none;" d="M62 158L63 159L62 158z"/>
<path style="fill:#7fb9dd; stroke:none;" d="M67 158L68 159L67 158z"/>
<path style="fill:#9fcae5; stroke:none;" d="M69 158L70 159L69 158z"/>
<path style="fill:#8fc2e1; stroke:none;" d="M123 158L124 159L123 158z"/>
<path style="fill:#bfdcee; stroke:none;" d="M167 158L168 159L167 158z"/>
<path style="fill:#ffffff; stroke:none;" d="M172 161L176 161L175 158C173.077 158.902 173.001 159.076 172 161z"/>
<path style="fill:#8fc2e1; stroke:none;" d="M180 158L181 159L180 158z"/>
<path style="fill:#60a8d5; stroke:none;" d="M227 158L228 159L227 158z"/>
<path style="fill:#9fcae5; stroke:none;" d="M229 158L230 159L229 158z"/>
<path style="fill:#ffffff; stroke:none;" d="M281 161L285 161C285 159.203 284.986 159.478 284 158C282.077 158.902 282.001 159.076 281 161z"/>
<path style="fill:#4096cc; stroke:none;" d="M284 158L285 159L284 158z"/>
<path style="fill:#70b0d9; stroke:none;" d="M289 158L290 159L289 158z"/>
<path style="fill:#8fc2e1; stroke:none;" d="M61 159L62 160L61 159z"/>
<path style="fill:#4096cc; stroke:none;" d="M70 159L71 160L70 159z"/>
<path style="fill:#70b0d9; stroke:none;" d="M75 159L76 160L75 159z"/>
<path style="fill:#7fb9dd; stroke:none;" d="M117 159L117 164L112 164C115.995 165.518 118.518 162.995 117 159z"/>
<path style="fill:#8fc2e1; stroke:none;" d="M172 159L173 160L172 159z"/>
<path style="fill:#bfdcee; stroke:none;" d="M175 159L176 160L175 159z"/>
<path style="fill:#4096cc; stroke:none;" d="M222 159L222 164C222.83 161.97 222.83 161.03 222 159z"/>
<path style="fill:#8fc2e1; stroke:none;" d="M223 159L224 160L223 159z"/>
<path style="fill:#4096cc; stroke:none;" d="M228 159L229 160L228 159z"/>
<path style="fill:#7fb9dd; stroke:none;" d="M234 159C234.34 163.365 235.635 164.66 240 165C238.231 164.221 236.964 164.088 235 164C234.912 162.036 234.779 160.769 234 159M281 159L282 160L281 159z"/>
<path style="fill:#bfdcee; stroke:none;" d="M290 159L291 160L290 159M25 160L26 161L25 160z"/>
<path style="fill:#afd3ea; stroke:none;" d="M66 160L67 161L66 160z"/>
<path style="fill:#bfdcee; stroke:none;" d="M70 160L71 161L70 160z"/>
<path style="fill:#afd3ea; stroke:none;" d="M76 160L77 161L76 160z"/>
<path style="fill:#60a8d5; stroke:none;" d="M120 160L121 161L120 160z"/>
<path style="fill:#509fd0; stroke:none;" d="M166 160L167 161L166 160z"/>
<path style="fill:#4096cc; stroke:none;" d="M176 160L177 161L176 160z"/>
<path style="fill:#60a8d5; stroke:none;" d="M224 160L225 161L224 160z"/>
<path style="fill:#7fb9dd; stroke:none;" d="M275 160L276 161L275 160z"/>
<path style="fill:#70b0d9; stroke:none;" d="M285 160L286 161L285 160z"/>
<path style="fill:#7fb9dd; stroke:none;" d="M13 161C11.5537 163.283 10.6894 163.582 8 164C10.8091 165.068 13.7848 164.491 13 161z"/>
<path style="fill:#afd3ea; stroke:none;" d="M121 161L122 162L121 161M165 161L166 162L165 161z"/>
<path style="fill:#7fb9dd; stroke:none;" d="M182 161L183 162L182 161z"/>
<path style="fill:#60a8d5; stroke:none;" d="M225 161L226 162L225 161z"/>
<path style="fill:#bfdcee; stroke:none;" d="M274 161L275 162L274 161z"/>
<path style="fill:#70b0d9; stroke:none;" d="M291 161L292 162L291 161M59 162L60 163L59 162z"/>
<path style="fill:#7fb9dd; stroke:none;" d="M65 162C67.3316 162.985 69.4567 162.981 72 163C69.6684 162.015 67.5433 162.019 65 162z"/>
<path style="fill:#509fd0; stroke:none;" d="M77 162L78 163L77 162z"/>
<path style="fill:#4096cc; stroke:none;" d="M170 162L171 163L170 162z"/>
<path style="fill:#7fb9dd; stroke:none;" d="M171 162C173.332 162.985 175.457 162.981 178 163C175.668 162.015 173.543 162.019 171 162z"/>
<path style="fill:#60a8d5; stroke:none;" d="M226 162L227 163L226 162z"/>
<path style="fill:#7fb9dd; stroke:none;" d="M280 162C282.331 162.985 284.457 162.981 287 163C284.668 162.015 282.543 162.019 280 162z"/>
<path style="fill:#afd3ea; stroke:none;" d="M292 162L293 163L292 162z"/>
<path style="fill:#7fb9dd; stroke:none;" d="M58 163C59.7341 165.003 61.3549 164.923 64 165C62.0593 164.049 60.1024 163.561 58 163z"/>
<path style="fill:#70b0d9; stroke:none;" d="M64 163L65 164L64 163z"/>
<path style="fill:#7fb9dd; stroke:none;" d="M72 163L73 164L72 163M78 163C76.1994 163.562 74.8782 163.824 73 164C74.5867 164.914 79.1835 165.867 78 163z"/>
<path style="fill:#70b0d9; stroke:none;" d="M124 163L125 164L124 163z"/>
<path style="fill:#4096cc; stroke:none;" d="M164 163L165 164L164 163z"/>
<path style="fill:#7fb9dd; stroke:none;" d="M227 163C228.248 163.685 228.548 163.749 230 164C228.752 163.315 228.452 163.251 227 163M273 163C274.734 165.003 276.355 164.923 279 165C277.059 164.049 275.102 163.561 273 163z"/>
<path style="fill:#bfdcee; stroke:none;" d="M279 163L280 164L279 163M13 164L14 165L13 164M117 164L118 165L117 164M125 164L126 165L125 164z"/>
<path style="fill:#7fb9dd; stroke:none;" d="M126 164C127.769 164.779 129.036 164.912 131 165C129.231 164.221 127.964 164.088 126 164M164 164C166.052 164.874 167.747 164.953 170 165C167.948 164.126 166.253 164.047 164 164z"/>
<path style="fill:#bfdcee; stroke:none;" d="M178 164L179 165L178 164z"/>
<path style="fill:#7fb9dd; stroke:none;" d="M179 164C180.769 164.779 182.036 164.912 184 165C182.231 164.221 180.964 164.088 179 164M217 164C219.052 164.874 220.747 164.953 223 165C220.948 164.126 219.253 164.047 217 164z"/>
<path style="fill:#bfdcee; stroke:none;" d="M234 164L235 165L234 164z"/>
<path style="fill:#7fb9dd; stroke:none;" d="M288 164C289.769 164.779 291.036 164.912 293 165C291.231 164.221 289.964 164.088 288 164z"/>
<path style="fill:#bfdcee; stroke:none;" d="M293 164L294 165L293 164z"/>
</svg>
